<svg width="16" height="18" viewBox="0 0 16 18" fill="none" xmlns="http://www.w3.org/2000/svg">
<path d="M10.971 11.014C11.8141 10.4776 12.5078 9.73649 12.9874 8.8598C13.467 7.98311 13.717 6.9993 13.714 6C13.714 2.7 11.014 0 7.714 0C4.414 0 1.714 2.7 1.714 6C1.714 8.1 2.785 9.943 4.457 11.014C1.843 12.257 0 14.914 0 18H1.714C1.714 14.7 4.414 12 7.714 12C11.014 12 13.714 14.7 13.714 18H15.428C15.428 14.914 13.586 12.257 10.971 11.014ZM3.428 6C3.43117 4.86426 3.88374 3.77593 4.68684 2.97284C5.48993 2.16974 6.57826 1.71717 7.714 1.714C8.84974 1.71717 9.93807 2.16974 10.7412 2.97284C11.5443 3.77593 11.9968 4.86426 12 6C11.9968 7.13574 11.5443 8.22407 10.7412 9.02716C9.93807 9.83026 8.84974 10.2828 7.714 10.286C6.57826 10.2828 5.48993 9.83026 4.68684 9.02716C3.88374 8.22407 3.43117 7.13574 3.428 6Z" fill="#9FE870"/>
</svg>
