<svg width="20" height="20" viewBox="0 0 20 20" fill="none" xmlns="http://www.w3.org/2000/svg">
<g clip-path="url(#clip0_50986_6140)">
<path d="M9.9974 1.66699C5.3974 1.66699 1.66406 5.40033 1.66406 10.0003C1.66406 14.6003 5.3974 18.3337 9.9974 18.3337C14.5974 18.3337 18.3307 14.6003 18.3307 10.0003C18.3307 5.40033 14.5974 1.66699 9.9974 1.66699ZM9.9974 16.667C6.3224 16.667 3.33073 13.6753 3.33073 10.0003C3.33073 6.32533 6.3224 3.33366 9.9974 3.33366C13.6724 3.33366 16.6641 6.32533 16.6641 10.0003C16.6641 13.6753 13.6724 16.667 9.9974 16.667ZM13.8224 6.31699L8.33073 11.8087L6.1724 9.65866L4.9974 10.8337L8.33073 14.167L14.9974 7.50033L13.8224 6.31699Z" fill="url(#paint0_linear_50986_6140)"/>
</g>
<defs>
<linearGradient id="paint0_linear_50986_6140" x1="2.05469" y1="18.3337" x2="22.9233" y2="17.7499" gradientUnits="userSpaceOnUse">
<stop offset="0.170102" stop-color="#9FE870"/>
<stop offset="1" stop-color="#15CF9D"/>
</linearGradient>
<clipPath id="clip0_50986_6140">
<rect width="20" height="20" fill="white"/>
</clipPath>
</defs>
</svg>
