<svg width="32" height="32" viewBox="0 0 32 32" fill="none" xmlns="http://www.w3.org/2000/svg">
<path d="M21.407 22.7319H10.9023C11.2105 22.3653 12.8722 20.0613 13.3243 12.6318H19.167C19.1625 12.9742 19.1172 18.7891 21.407 22.7319Z" fill="#0AB280"/>
<path d="M24.7442 27.1054H7.39925C7.34668 26.2016 7.49434 25.1671 8.98325 24.9207C10.3602 24.6967 10.4068 23.589 10.4013 23.3691H21.7215C22.0534 24.8946 22.8159 24.8946 22.8159 24.8946C25.1647 25.0523 24.8397 26.7474 24.7442 27.1054Z" fill="#0AB280"/>
<path d="M25.8115 28.3193L25.795 29.6615H6.32804L6.3125 28.5223C6.55159 28.003 7.05627 27.7644 7.1317 27.7314H25.1102C25.5843 27.8846 25.8115 28.3193 25.8115 28.3193Z" fill="#0AB280"/>
<path d="M19.9699 11.5065C19.9699 11.8612 19.6732 12.1497 19.307 12.1497H12.9299C12.5623 12.1497 12.2656 11.8612 12.2656 11.5065C12.2656 11.1522 12.5619 10.8633 12.9299 10.8633H19.3065C19.6727 10.8628 19.9699 11.1517 19.9699 11.5065Z" fill="#0AB280"/>
<path d="M16.1617 10.554C18.4451 10.554 20.2961 8.70292 20.2961 6.41956C20.2961 4.13619 18.4451 2.28516 16.1617 2.28516C13.8784 2.28516 12.0273 4.13619 12.0273 6.41956C12.0273 8.70292 13.8784 10.554 16.1617 10.554Z" fill="#0AB280"/>
</svg>
