<svg width="16" height="16" viewBox="0 0 16 16" fill="none" xmlns="http://www.w3.org/2000/svg">
<path d="M6.66797 14.6673V10.2873M8.0013 7.33398H8.00797M8.0013 4.66732H8.00797M9.33464 10.2873V14.6673M10.0013 10.6673C9.42432 10.2346 8.72254 10.0007 8.0013 10.0007C7.28007 10.0007 6.57829 10.2346 6.0013 10.6673M10.668 7.33398H10.6746M10.668 4.66732H10.6746M5.33464 7.33398H5.3413M5.33464 4.66732H5.3413M4.0013 1.33398H12.0013C12.7377 1.33398 13.3346 1.93094 13.3346 2.66732V13.334C13.3346 14.0704 12.7377 14.6673 12.0013 14.6673H4.0013C3.26492 14.6673 2.66797 14.0704 2.66797 13.334V2.66732C2.66797 1.93094 3.26492 1.33398 4.0013 1.33398Z" stroke="white" stroke-opacity="0.4" stroke-width="1.33333" stroke-linecap="round" stroke-linejoin="round"/>
</svg>
