<svg width="32" height="32" viewBox="0 0 32 32" fill="none" xmlns="http://www.w3.org/2000/svg">
<path d="M21.3799 22.6711H10.2188C10.6814 21.9388 12.275 18.8357 12.728 10.2373H18.9584C18.9547 10.8682 18.9721 17.8986 21.3799 22.6711Z" fill="#0AB280"/>
<path d="M19.7418 9.01978C19.7418 9.39007 19.4273 9.68995 19.0401 9.68995H12.5099C12.1227 9.68995 11.8086 9.39007 11.8086 9.01978C11.8086 8.64904 12.1231 8.34961 12.5099 8.34961H19.0397C19.4269 8.34961 19.7418 8.64904 19.7418 9.01978Z" fill="#0AB280"/>
<path d="M21.2585 2.28613V7.87288H10.293V2.28613H12.3588V3.8331H14.9023V2.28613H16.597V3.8331H19.1396V2.28613H21.2585Z" fill="#0AB280"/>
<path d="M24.5688 26.9811H6.929C6.88054 26.0942 7.04374 25.0885 8.54089 24.8499C9.86751 24.6382 9.97906 23.6435 9.98272 23.3555H21.4981C21.8405 24.8211 22.5989 24.822 22.6003 24.822C24.9313 24.9765 24.6721 26.576 24.5688 26.9811Z" fill="#0AB280"/>
<path d="M25.6989 28.2431L25.682 29.6658H5.86848L5.85156 28.4575C6.06642 27.9734 6.48973 27.7188 6.64105 27.6406H25.0461C25.4872 27.8203 25.6989 28.2431 25.6989 28.2431Z" fill="#0AB280"/>
</svg>
