<svg width="32" height="32" viewBox="0 0 32 32" fill="none" xmlns="http://www.w3.org/2000/svg">
<path d="M25.1031 28.1386L25.0871 29.4245H7.32713L7.3125 28.3329C7.52461 27.8524 7.96073 27.6216 8.0517 27.5781H24.475C24.8997 27.729 25.1031 28.1386 25.1031 28.1386Z" fill="#0AB280"/>
<path d="M21.3508 23.1131H13.8797C18.9718 20.3949 19.7604 16.0219 19.7942 15.8176C19.2351 18.5225 15.6653 21.167 14.2902 22.064C12.9138 22.9613 12.6294 22.7817 12.6294 22.7817C11.1341 22.064 9.24885 17.77 9.54782 17.4564C9.84725 17.1419 11.7019 16.1097 11.7019 16.1097C14.2006 14.7483 15.412 11.4272 16.4749 10.9485C17.5368 10.4699 17.4916 9.67722 17.4916 9.67722C16.8786 11.039 13.572 11.1584 12.1362 11.9213C10.6994 12.6838 10.3556 13.312 10.3556 13.312C10.2509 12.789 10.4008 11.263 10.2957 11.5021C10.191 11.7417 9.44313 12.8489 8.8301 12.2802C8.21662 11.7115 7.96199 10.8891 8.70988 10.3204C9.4573 9.75128 13.6612 5.66716 13.6612 5.66716C13.1528 4.60522 13.3174 2.28613 13.3174 2.28613C13.7215 3.25893 15.7558 4.7099 15.7558 4.7099C17.4911 4.8891 22.3387 6.53528 23.834 12.1005C25.2543 17.3814 21.716 22.5956 21.3508 23.1131Z" fill="#0AB280"/>
<path d="M24.1538 26.2523V27.0024H8.30236C8.25665 26.7464 8.07973 25.4226 9.25413 25.0856C10.5469 24.714 11.1019 24.372 11.08 23.6045H21.4027C21.4132 23.7279 21.5193 24.623 22.2845 25.0253C23.1069 25.4596 23.9298 24.9508 24.1538 26.2523Z" fill="#0AB280"/>
</svg>
