<svg width="11" height="14" viewBox="0 0 11 14" fill="none" xmlns="http://www.w3.org/2000/svg">
<path d="M0.119141 6.78678C0.119141 6.97087 0.268392 7.12012 0.452474 7.12012H6.31449L4.55013 8.88444C4.48763 8.94694 4.45251 9.0317 4.45251 9.12008C4.45247 9.30416 4.60172 9.45341 4.78581 9.45345C4.87423 9.45353 4.95902 9.41842 5.02144 9.35579L7.35478 7.02246V7.02246C7.48486 6.89229 7.48494 6.68123 7.35478 6.55115L5.02144 4.21781C4.89229 4.09306 4.6875 4.09306 4.55831 4.21781C4.4259 4.3457 4.42224 4.55672 4.55013 4.68913L6.31449 6.45345H0.452474C0.268392 6.45345 0.119141 6.6027 0.119141 6.78678ZM9.11914 0.120117H1.78581C0.865682 0.120972 0.119995 0.866659 0.119141 1.78678V4.45345C0.119141 4.63753 0.268392 4.78678 0.452474 4.78678C0.636556 4.78678 0.785807 4.63753 0.785807 4.45345V1.78678C0.786418 1.23474 1.23376 0.787394 1.78581 0.786784H9.11914C9.67118 0.787394 10.1185 1.23474 10.1191 1.78678V11.7868C10.1185 12.3388 9.67118 12.7862 9.11914 12.7868H1.78581C1.23376 12.7862 0.786418 12.3388 0.785807 11.7868V9.12012C0.785807 8.93604 0.636556 8.78678 0.452474 8.78678C0.268392 8.78678 0.119141 8.93604 0.119141 9.12012V11.7868C0.119995 12.7069 0.865682 13.4526 1.78581 13.4535H9.11914C10.0393 13.4526 10.785 12.7069 10.7858 11.7868V1.78678C10.785 0.866659 10.0393 0.120972 9.11914 0.120117Z" fill="white"/>
<path d="M7.35478 7.02246L5.02144 9.35579C4.95902 9.41842 4.87423 9.45353 4.78581 9.45345C4.60172 9.45341 4.45247 9.30416 4.45251 9.12008C4.45251 9.0317 4.48763 8.94694 4.55013 8.88444L6.31449 7.12012H0.452474C0.268392 7.12012 0.119141 6.97087 0.119141 6.78678C0.119141 6.6027 0.268392 6.45345 0.452474 6.45345H6.31449L4.55013 4.68913C4.42224 4.55672 4.4259 4.3457 4.55831 4.21781C4.6875 4.09306 4.89229 4.09306 5.02144 4.21781L7.35478 6.55115C7.48494 6.68123 7.48486 6.89229 7.35478 7.02246ZM7.35478 7.02246V7.02246ZM9.11914 0.120117H1.78581C0.865682 0.120972 0.119995 0.866659 0.119141 1.78678V4.45345C0.119141 4.63753 0.268392 4.78678 0.452474 4.78678C0.636556 4.78678 0.785807 4.63753 0.785807 4.45345V1.78678C0.786418 1.23474 1.23376 0.787394 1.78581 0.786784H9.11914C9.67118 0.787394 10.1185 1.23474 10.1191 1.78678V11.7868C10.1185 12.3388 9.67118 12.7862 9.11914 12.7868H1.78581C1.23376 12.7862 0.786418 12.3388 0.785807 11.7868V9.12012C0.785807 8.93604 0.636556 8.78678 0.452474 8.78678C0.268392 8.78678 0.119141 8.93604 0.119141 9.12012V11.7868C0.119995 12.7069 0.865682 13.4526 1.78581 13.4535H9.11914C10.0393 13.4526 10.785 12.7069 10.7858 11.7868V1.78678C10.785 0.866659 10.0393 0.120972 9.11914 0.120117Z" stroke="white" stroke-opacity="0.8" stroke-width="0.239583"/>
</svg>
