<svg width="16" height="16" viewBox="0 0 16 16" fill="none" xmlns="http://www.w3.org/2000/svg">
<path d="M13.3346 6.66732C13.3346 9.99598 9.64197 13.4627 8.40197 14.5333C8.28645 14.6202 8.14583 14.6672 8.0013 14.6672C7.85677 14.6672 7.71615 14.6202 7.60064 14.5333C6.36064 13.4627 2.66797 9.99598 2.66797 6.66732C2.66797 5.25283 3.22987 3.89628 4.23007 2.89608C5.23026 1.89589 6.58681 1.33398 8.0013 1.33398C9.41579 1.33398 10.7723 1.89589 11.7725 2.89608C12.7727 3.89628 13.3346 5.25283 13.3346 6.66732Z" stroke="white" stroke-opacity="0.4" stroke-width="1.33333" stroke-linecap="round" stroke-linejoin="round"/>
<path d="M8.0013 8.66732C9.10587 8.66732 10.0013 7.77189 10.0013 6.66732C10.0013 5.56275 9.10587 4.66732 8.0013 4.66732C6.89673 4.66732 6.0013 5.56275 6.0013 6.66732C6.0013 7.77189 6.89673 8.66732 8.0013 8.66732Z" stroke="white" stroke-opacity="0.4" stroke-width="1.33333" stroke-linecap="round" stroke-linejoin="round"/>
</svg>
