<svg width="24" height="24" viewBox="0 0 24 24" fill="none" xmlns="http://www.w3.org/2000/svg">
<path d="M20.786 19.543L16.757 15.514C17.829 14.186 18.429 12.514 18.429 10.714C18.429 6.471 14.957 3 10.714 3C6.471 3 3 6.471 3 10.714C3 14.957 6.471 18.429 10.714 18.429C12.514 18.429 14.186 17.786 15.514 16.757L19.543 20.786L20.786 19.543ZM10.757 16.714C7.457 16.714 4.757 14.014 4.757 10.714C4.757 7.414 7.457 4.714 10.757 4.714C14.057 4.714 16.757 7.414 16.757 10.714C16.757 14.014 14.057 16.714 10.757 16.714Z" fill="url(#paint0_linear_47523_7634)"/>
<defs>
<linearGradient id="paint0_linear_47523_7634" x1="3.41686" y1="20.786" x2="25.687" y2="20.163" gradientUnits="userSpaceOnUse">
<stop offset="0.170102" stop-color="#9FE870"/>
<stop offset="1" stop-color="#15CF9D"/>
</linearGradient>
</defs>
</svg>
