<svg width="20" height="20" viewBox="0 0 20 20" fill="none" xmlns="http://www.w3.org/2000/svg">
<path d="M18.3317 10.0001C18.3317 10.079 18.3093 10.1563 18.267 10.223C18.2248 10.2897 18.1645 10.343 18.0932 10.3768L3.09315 17.4601C3.01823 17.4964 2.93411 17.5094 2.85174 17.4973C2.76937 17.4851 2.69254 17.4485 2.63125 17.3922C2.56995 17.3358 2.52703 17.2624 2.50805 17.1813C2.48907 17.1002 2.49491 17.0153 2.52482 16.9376L4.89315 10.5818C5.03288 10.2066 5.03288 9.79364 4.89315 9.41844L2.52398 3.06261C2.49392 2.98481 2.488 2.89976 2.507 2.81855C2.52599 2.73734 2.56901 2.66373 2.63045 2.60733C2.69188 2.55093 2.76889 2.51435 2.85143 2.50236C2.93397 2.49037 3.0182 2.50352 3.09315 2.54011L18.0932 9.62345C18.1645 9.65719 18.2248 9.71051 18.267 9.77719C18.3093 9.84388 18.3317 9.92118 18.3317 10.0001ZM18.3317 10.0001H4.99815" stroke="#9FE870" stroke-width="1.66667" stroke-linecap="round" stroke-linejoin="round"/>
</svg>
