<svg width="32" height="32" viewBox="0 0 32 32" fill="none" xmlns="http://www.w3.org/2000/svg">
<path d="M20.1531 24.4104H11.5625C11.8116 24.1411 13.6635 21.8892 13.9748 14.1338H17.8583C17.8948 14.4483 18.6034 20.3976 20.1531 24.4104Z" fill="#0AB280"/>
<path d="M22.6148 27.7678L9.05776 27.777C9.0061 27.0602 9.09525 26.2131 10.2939 26.017C11.4006 25.8364 11.4084 24.934 11.4034 24.7969H20.26C20.5188 25.996 21.1213 25.996 21.1213 25.996C23.1766 26.1345 22.6148 27.7678 22.6148 27.7678Z" fill="#0AB280"/>
<path d="M23.4867 29.7239L23.5 28.6427C23.5 28.6427 23.2577 28.165 22.748 28.1266C22.2392 28.0891 8.88007 28.165 8.88007 28.165C8.88007 28.165 8.43435 28.3534 8.23047 28.8055L8.24327 29.7239H23.4867Z" fill="#0AB280"/>
<path d="M18.9028 13.3084C18.9028 13.5594 18.667 13.7624 18.3753 13.7624H13.3522C13.0601 13.7624 12.8242 13.5594 12.8242 13.3084C12.8242 13.0579 13.0606 12.8545 13.3522 12.8545H18.3753C18.6674 12.854 18.9028 13.0579 18.9028 13.3084Z" fill="#0AB280"/>
<path d="M17.8517 11.2188H13.8828V12.4855H17.8517V11.2188Z" fill="#0AB280"/>
<path d="M12.5508 5.07245C12.1636 5.12411 12.1517 5.50125 12.3282 5.9168C12.5042 6.33143 13.3732 9.85005 13.5254 10.9015L18.1636 10.9403C18.1636 10.9403 18.6093 7.3312 19.3252 6.05943C19.3252 6.05943 19.8884 5.15063 19.0317 5.0208C18.1741 4.89097 12.938 5.0208 12.5508 5.07245Z" fill="#0AB280"/>
<path d="M17.4842 3.73436H16.7537L16.8013 4.5819H14.9252L14.9722 3.73436H14.2422V2.96042H15.0152L15.0527 2.28613H16.6737L16.7112 2.96042H17.4842V3.73436Z" fill="#0AB280"/>
</svg>
